# xmcd
#
# Track frame offsets:
#	150
#	24787
#	50687
#	68887
#	91002
#	115035
#	142305
#
# Disc length: 2208 seconds
#
# Revision: 1
# Processed by: cddbd v1.5.1PL0 Copyright (c) Steve Scherf et al.
# Submitted via: CDex 1.50Beta5
#
DISCID=58089e07
DTITLE=EPO - epo Works
DYEAR=1993
DGENRE=
TTITLE0=私について
TTITLE1=ある朝,風に吹かれて
TTITLE2=上海エトランゼ
TTITLE3=ル・パ・ラ
TTITLE4=矛盾の中で生きてる
TTITLE5=12月のエイプリル・フール
TTITLE6=Down Town
EXTD=
EXTT0=
EXTT1=
EXTT2=
EXTT3=
EXTT4=
EXTT5=
EXTT6=
PLAYORDER=
